# xmcd
# 
# Track frame offsets:
#     182
#     25332
#     44692
#     67480
#     85835
#     111707
#     136520
#     159355
#     179752
#     199162
#     217125
# 
# Disc length: 3164
# 
# Revision: 5
# Processed by: cddbd v1.5.2PL0 Copyright (c) Steve Scherf et al.
# Submitted via: fre:ac v1.0.27
# 
DISCID=ae0c5a0b
DTITLE=David Bowie - Never Let Me Down
DYEAR=1987
DGENRE=Rock
TTITLE0=Day-in Day-out
TTITLE1=Time Will Crawl
TTITLE2=Beat of Your Drum
TTITLE3=Never Let Me Down
TTITLE4=Zeroes
TTITLE5=Glass Spider
TTITLE6=Shining Star (makin' my love)
TTITLE7=New York's in Love
TTITLE8='87 and Cry
TTITLE9=Too Dizzy
TTITLE10=Bang Bang
EXTD=
EXTT0=
EXTT1=
EXTT2=
EXTT3=
EXTT4=
EXTT5=
EXTT6=
EXTT7=
EXTT8=
EXTT9=
EXTT10=
PLAYORDER=
